<svg width="87" height="104" viewBox="0 0 87 104" fill="none"
    xmlns="http://www.w3.org/2000/svg">
    <g clip-path="url(#clip0_254_87)">
        <path d="M40.6082 0.535131L5.22783 14.0575C3.68502 14.6623 2.36066 15.7187 1.42793 17.0884C0.495206 18.4581 -0.00246335 20.0774 9.1684e-06 21.7345V55.7771L16.2598 46.4329V27.2917L43.5103 16.836V0C42.5186 0.00213593 41.5355 0.183424 40.6082 0.535131Z" fill="#568FCB"/>
        <path d="M16.5479 76.7706L43.5103 61.2312V42.4604L1.85238 66.4796C1.29161 66.8081 0.825969 67.2769 0.501197 67.8398C0.176425 68.4027 0.00370216 69.0405 0 69.6904V82.2659C0.0140024 83.909 0.519347 85.5103 1.45101 86.8638C2.38267 88.2173 3.69803 89.261 5.22782 89.8607L40.6082 103.383C41.5355 103.735 42.5186 103.916 43.5103 103.918V87.0821L16.5479 76.7706Z" fill="#568FCB"/>
        <path d="M85.2912 37.1093C85.8228 36.8048 86.2635 36.3638 86.5674 35.8318C86.8714 35.2999 87.0277 34.6963 87.02 34.0837V21.7345C87.0225 20.0774 86.5248 18.4581 85.5921 17.0884C84.6594 15.7187 83.335 14.6623 81.7922 14.0575L46.3912 0.535131C45.4705 0.185853 44.4945 0.00460535 43.5098 0V16.836L70.2663 27.127L43.5098 42.5429V61.3136L85.2912 37.1093Z" fill="#4070B7"/>
        <path d="M46.3912 103.383L81.7922 89.8607C83.322 89.2611 84.6374 88.2173 85.569 86.8639C86.5007 85.5104 87.0061 83.9091 87.0201 82.266V47.8735L70.7603 57.2589V76.6677L43.5098 87.0822V103.918C44.4945 103.914 45.4705 103.732 46.3912 103.383Z" fill="#4070B7"/>
    </g>
    <defs>
        <clipPath id="clip0_254_87">
            <rect width="87" height="103.898" fill="white"/>
        </clipPath>
    </defs>
</svg>
